#!OML:ASF F:\VICON\USERDATA\Patient Classification 1\PLAYGROUND\JustinFriday\JustinFriday.ASF
:FULLY-SPECIFIED
:DEGREES
1664
root -0.132427 17.6761 13.5385 113.637 -80.5634 -116.244
lowerback 11.1915 1.55785 6.10049
upperback 6.76866 2.24126 3.29843
thorax 0.937969 1.07058 -0.219778
lowerneck 12.8611 -7.78759 -13.7195
upperneck 14.0354 -13.0447 5.89986
head 3.48226 -7.23428 3.96394
rclavicle -2.20154e-014 -3.55825e-014
rhumerus -24.1466 -5.00025 -74.6222
rradius 46.8931
rwrist -16.3866
rhand -17.0121 -24.342
rfingers 7.12502
rthumb 9.22371 -54.1203
lclavicle -2.20154e-014 -3.55825e-014
lhumerus -33.5479 2.37396 82.828
lradius 31.9377
lwrist 0.428808
lhand -13.0122 -9.43004
lfingers 7.12502
lthumb 13.0815 20.1397
rfemur -2.25966 -4.36119 36.4526
rtibia 21.5273
rfoot -12.0453 -2.1529
rtoes 22.3226
lfemur -27.4642 3.82449 -4.45178
ltibia 71.6272
lfoot -2.06198 -4.57594
ltoes 12.851
1665
root -0.292637 17.6583 13.5253 110.031 -79.2687 -112.808
lowerback 11.3692 1.63435 7.42072
upperback 6.89279 2.43956 3.60131
thorax 1.0469 1.19291 -0.655231
lowerneck 12.7692 -8.18626 -13.4905
upperneck 14.1241 -13.5552 6.07149
head 3.57008 -7.46735 3.95852
rclavicle 4.42296e-015 -2.78299e-014
rhumerus -24.1882 -5.35337 -74.4333
rradius 47.6414
rwrist -17.1212
rhand -17.8136 -23.4881
rfingers 7.12502
rthumb 8.45023 -53.299
lclavicle 4.42296e-015 -2.78299e-014
lhumerus -33.7338 1.64145 82.8699
lradius 31.4068
lwrist 0.651925
lhand -13 -8.59624
lfingers 7.12502
lthumb 13.0932 20.9728
rfemur -1.25496 0.742424 38.8601
rtibia 21.5184
rfoot -12.9414 -7.30493
rtoes 23.3884
lfemur -28.0769 3.31654 -2.76865
ltibia 70.4097
lfoot -2.75191 -4.92704
ltoes 11.0806
1666
root -0.436564 17.6304 13.5281 112.274 -78.5574 -114.595
lowerback 11.2645 1.83546 7.8099
upperback 6.69702 2.74934 3.73229
thorax 0.934925 1.35075 -0.763708
lowerneck 12.6738 -8.22006 -13.8384
upperneck 14.4419 -13.6786 6.31206
head 3.73391 -7.54855 4.06627
rclavicle 2.30093e-014 1.55052e-014
rhumerus -24.4722 -5.6264 -74.2041
rradius 48.5963
rwrist -17.0741
rhand -19.1936 -23.3621
rfingers 7.12502
rthumb 7.11829 -53.2224
lclavicle 2.30093e-014 1.55052e-014
lhumerus -34.2087 2.07398 82.7352
lradius 30.7611
lwrist 0.311243
lhand -14.4233 -7.54022
lfingers 7.12502
lthumb 11.7209 22.1119
rfemur -1.17626 -0.663133 39.0878
rtibia 21.4987
rfoot -13.1863 -5.19709
rtoes 23.5432
lfemur -29.0984 3.52953 -2.17019
ltibia 68.9808
lfoot -3.18779 -5.1922
ltoes 11.7579
1667
root -0.590012 17.6115 13.5196 113.99 -78.0446 -116.148
lowerback 11.2554 1.93715 8.04437
upperback 6.66386 2.90481 3.71831
thorax 0.9323 1.43366 -0.92185
lowerneck 12.5528 -8.07823 -13.9571
upperneck 14.6789 -13.5317 6.54517
head 3.83044 -7.48399 4.15058
rclavicle 2.29596e-014 1.98785e-015
rhumerus -24.9983 -5.91033 -74.2798
rradius 50.0844
rwrist -16.7717
rhand -20.705 -24.0653
rfingers 7.12502
rthumb 5.65913 -53.9697
lclavicle 2.29596e-014 1.98785e-015
lhumerus -34.5638 3.6555 81.9435
lradius 29.8523
lwrist -0.278693
lhand -14.1591 -8.24985
lfingers 7.12502
lthumb 11.9757 21.3876
rfemur -0.735537 -1.21295 39.2846
rtibia 21.4263
rfoot -13.4762 -4.22768
rtoes 22.8373
lfemur -29.6762 3.66102 -1.7554
ltibia 67.3557
lfoot -3.63677 -5.19999
ltoes 12.6068
1668
root -0.755358 17.6265 13.5168 114.887 -77.8341 -116.821
lowerback 10.9367 1.91474 8.28072
upperback 6.73352 2.85446 3.62133
thorax 1.19677 1.42732 -1.1333
lowerneck 12.189 -8.1511 -14.0907
upperneck 14.9311 -13.6037 6.50596
head 3.97865 -7.52329 4.12965
rclavicle -1.963e-015 -1.47101e-014
rhumerus -24.9635 -5.78224 -74.3452
rradius 51.1384
rwrist -16.939
rhand -21.4718 -24.8322
rfingers 7.12502
rthumb 4.91877 -54.7552
lclavicle -1.963e-015 -1.47101e-014
lhumerus -34.8988 4.77488 81.4812
lradius 29.1473
lwrist -0.891684
lhand -14.2298 -8.26986
lfingers 7.12502
lthumb 11.9076 21.3715
rfemur -0.336644 1.5983 39.8176
rtibia 21.7281
rfoot -14.292 -6.7824
rtoes 22.5102
lfemur -30.1027 3.47829 -1.71693
ltibia 65.3837
lfoot -4.32912 -4.83108
ltoes 10.9552
1669
root -0.895464 17.6159 13.5129 117.029 -77.8333 -118.597
lowerback 10.9094 2.02635 8.10267
upperback 6.62382 3.00523 3.45468
thorax 1.1032 1.50147 -1.22409
lowerneck 12.72 -7.6822 -12.5879
upperneck 14.4134 -12.782 5.7953
head 3.50835 -7.06338 3.76171
rclavicle -3.10353e-014 -2.0276e-014
rhumerus -24.7434 -5.89874 -74.3744
rradius 51.7406
rwrist -17.188
rhand -21.851 -25.4626
rfingers 7.12502
rthumb 4.55266 -55.3936
lclavicle -3.10353e-014 -2.0276e-014
lhumerus -35.2614 5.21806 81.1744
lradius 28.5417
lwrist -0.912574
lhand -14.1275 -8.2107
lfingers 7.12502
lthumb 12.0062 21.4249
rfemur -0.37743 -0.329065 39.1788
rtibia 21.8653
rfoot -14.5923 -4.40795
rtoes 22.8588
lfemur -30.851 3.20417 -1.97809
ltibia 63.3477
lfoot -4.89088 -4.29336
ltoes 8.14151
1670
root -1.04373 17.6113 13.5102 119.395 -77.8627 -120.497
lowerback 10.6841 2.17524 7.7568
upperback 6.49208 3.17524 3.34571
thorax 1.08039 1.58289 -1.15648
lowerneck 12.2327 -8.63582 -12.936
upperneck 14.2549 -13.9607 5.45982
head 3.65658 -7.63694 3.6429
rclavicle 2.03754e-015 2.20154e-014
rhumerus -24.7641 -6.06146 -74.3129
rradius 52.3889
rwrist -17.2581
rhand -22.0315 -25.7156
rfingers 7.12502
rthumb 4.37832 -55.6504
lclavicle 2.03754e-015 2.20154e-014
lhumerus -35.666 5.6624 80.9738
lradius 28.0726
lwrist -0.864154
lhand -13.8686 -7.75676
lfingers 7.12502
lthumb 12.2558 21.8641
rfemur -0.342909 0.147965 38.9739
rtibia 22.024
rfoot -15.0064 -4.71224
rtoes 21.8781
lfemur -31.5614 2.85144 -2.27154
ltibia 61.1922
lfoot -5.1958 -3.67744
ltoes 6.85993
1671
root -1.19696 17.6071 13.5173 119.484 -77.7621 -120.246
lowerback 10.4994 2.11841 7.76709
upperback 6.4166 3.09171 3.41506
thorax 1.09137 1.54073 -1.07781
lowerneck 12.2546 -8.77737 -12.4912
upperneck 13.925 -14.0131 4.80618
head 3.48511 -7.64247 3.38775
rclavicle -2.55935e-015 -2.88238e-015
rhumerus -24.6721 -5.69159 -74.081
rradius 52.8415
rwrist -17.3714
rhand -21.2599 -25.0922
rfingers 7.12502
rthumb 5.12336 -55.0102
lclavicle -2.55935e-015 -2.88238e-015
lhumerus -36.0921 6.09426 80.8578
lradius 27.6244
lwrist -0.825394
lhand -13.6463 -7.39022
lfingers 7.12502
lthumb 12.4702 22.2177
rfemur 0.0154717 1.69972 39.3642
rtibia 21.9305
rfoot -15.4174 -6.50591
rtoes 20.3712
lfemur -32.1364 2.46646 -2.21147
ltibia 58.9552
lfoot -5.27413 -3.11061
ltoes 6.54041
1672
root -1.34012 17.5704 13.5261 120.877 -77.3859 -121.394
lowerback 10.6358 2.21219 7.84818
upperback 6.27301 3.25063 3.47465
thorax 0.8794 1.6125 -1.08432
lowerneck 12.403 -8.53588 -12.8958
upperneck 14.0138 -13.8305 5.4554
head 3.54079 -7.56907 3.65585
rclavicle -1.32689e-014 1.72943e-014
rhumerus -24.8271 -5.20927 -73.8118
rradius 53.4061
rwrist -17.6231
rhand -20.2721 -24.531
rfingers 7.12502
rthumb 6.07711 -54.4239
lclavicle -1.32689e-014 1.72943e-014
lhumerus -36.4965 6.50429 80.671
lradius 26.8868
lwrist -1.33823
lhand -13.5814 -7.63027
lfingers 7.12502
lthumb 12.5327 21.9739
rfemur 0.372719 -0.875291 38.9789
rtibia 21.5911
rfoot -15.5272 -3.58836
rtoes 20.2805
lfemur -32.5516 2.47524 -1.96959
ltibia 56.7004
lfoot -5.32288 -2.53197
ltoes 5.8158
1673
root -1.50089 17.5669 13.5262 119.982 -77.0051 -120.093
lowerback 10.2972 2.14736 8.41812
upperback 6.20308 3.18346 3.49199
thorax 1.02494 1.59802 -1.36044
lowerneck 12.0889 -8.53014 -13.5011
upperneck 14.4701 -13.9564 6.19513
head 3.82902 -7.65186 3.93647
rclavicle -2.79665e-014 -4.15957e-014
rhumerus -25.3102 -5.65019 -73.8524
rradius 54.4107
rwrist -17.3576
rhand -20.1754 -24.4847
rfingers 7.12502
rthumb 6.17053 -54.3748
lclavicle -2.79665e-014 -4.15957e-014
lhumerus -36.7014 7.61796 80.1498
lradius 25.9882
lwrist -2.56561
lhand -13.3822 -8.05155
lfingers 7.12502
lthumb 12.7248 21.5407
rfemur 0.969446 2.05939 40.032
rtibia 21.1046
rfoot -15.8208 -6.39846
rtoes 21.6259
lfemur -33.0152 2.11346 -1.40114
ltibia 54.2299
lfoot -5.28063 -2.12437
ltoes 6.43868
1674
root -1.66108 17.5554 13.5267 120.728 -76.936 -120.642
lowerback 10.1363 2.10016 8.50588
upperback 6.2358 3.1093 3.37251
thorax 1.15424 1.57204 -1.51865
lowerneck 11.4151 -9.02736 -14.0281
upperneck 14.8319 -14.5889 6.1322
head 4.14754 -7.97562 3.91458
rclavicle 2.99854e-014 3.14328e-015
rhumerus -25.9937 -7.07665 -73.9988
rradius 55.7812
rwrist -15.9712
rhand -19.5738 -24.487
rfingers 7.12502
rthumb 6.75122 -54.3594
lclavicle 2.99854e-014 3.14328e-015
lhumerus -36.963 8.73863 79.5827
lradius 25.4099
lwrist -3.39758
lhand -13.0632 -7.79864
lfingers 7.12502
lthumb 13.0323 21.7743
rfemur 1.57836 1.70129 39.8707
rtibia 20.6779
rfoot -16.0347 -5.53478
rtoes 23.9662
lfemur -33.1554 1.69438 -1.34311
ltibia 51.6561
lfoot -5.39203 -1.45489
ltoes 6.669
